<mxfile host="app.diagrams.net" modified="2022-04-21T08:10:19.038Z" agent="5.0 (Windows NT 10.0; Win64; x64) AppleWebKit/537.36 (KHTML, like Gecko) Chrome/100.0.4896.127 Safari/537.36" etag="yfHov_G-ej7XiROrslxF" version="17.4.6" type="github">
  <diagram id="J3jAYLJ1fgHtfMsQOHvB" name="Page-1">
    <mxGraphModel dx="1420" dy="802" grid="1" gridSize="10" guides="1" tooltips="1" connect="1" arrows="1" fold="1" page="1" pageScale="1" pageWidth="850" pageHeight="1100" math="0" shadow="0">
      <root>
        <mxCell id="0" />
        <mxCell id="1" parent="0" />
        <mxCell id="kZiViX7LxagzPhz4eCc0-1" value="Voter" style="whiteSpace=wrap;html=1;align=center;" parent="1" vertex="1">
          <mxGeometry x="350" y="670" width="100" height="40" as="geometry" />
        </mxCell>
        <mxCell id="kZiViX7LxagzPhz4eCc0-2" value="Admin" style="whiteSpace=wrap;html=1;align=center;" parent="1" vertex="1">
          <mxGeometry x="560" y="410" width="100" height="40" as="geometry" />
        </mxCell>
        <mxCell id="kZiViX7LxagzPhz4eCc0-3" value="Center" style="whiteSpace=wrap;html=1;align=center;" parent="1" vertex="1">
          <mxGeometry x="110" y="440" width="100" height="40" as="geometry" />
        </mxCell>
        <mxCell id="kZiViX7LxagzPhz4eCc0-8" value="" style="endArrow=none;html=1;rounded=0;entryX=0.5;entryY=1;entryDx=0;entryDy=0;exitX=0.5;exitY=0;exitDx=0;exitDy=0;" parent="1" source="kZiViX7LxagzPhz4eCc0-1" target="kZiViX7LxagzPhz4eCc0-14" edge="1">
          <mxGeometry relative="1" as="geometry">
            <mxPoint x="220" y="600" as="sourcePoint" />
            <mxPoint x="410" y="600" as="targetPoint" />
          </mxGeometry>
        </mxCell>
        <mxCell id="kZiViX7LxagzPhz4eCc0-10" value="1" style="edgeLabel;html=1;align=center;verticalAlign=middle;resizable=0;points=[];" parent="kZiViX7LxagzPhz4eCc0-8" vertex="1" connectable="0">
          <mxGeometry x="0.7933" y="-4" relative="1" as="geometry">
            <mxPoint as="offset" />
          </mxGeometry>
        </mxCell>
        <mxCell id="kZiViX7LxagzPhz4eCc0-13" value="1" style="edgeLabel;html=1;align=center;verticalAlign=middle;resizable=0;points=[];" parent="kZiViX7LxagzPhz4eCc0-8" vertex="1" connectable="0">
          <mxGeometry x="-0.7097" relative="1" as="geometry">
            <mxPoint as="offset" />
          </mxGeometry>
        </mxCell>
        <mxCell id="kZiViX7LxagzPhz4eCc0-9" value="" style="endArrow=none;html=1;rounded=0;entryX=0.5;entryY=1;entryDx=0;entryDy=0;exitX=0.5;exitY=0;exitDx=0;exitDy=0;" parent="1" source="kZiViX7LxagzPhz4eCc0-14" target="kZiViX7LxagzPhz4eCc0-2" edge="1">
          <mxGeometry relative="1" as="geometry">
            <mxPoint x="470" y="560" as="sourcePoint" />
            <mxPoint x="640" y="530" as="targetPoint" />
          </mxGeometry>
        </mxCell>
        <mxCell id="kZiViX7LxagzPhz4eCc0-11" value="M" style="edgeLabel;html=1;align=center;verticalAlign=middle;resizable=0;points=[];" parent="kZiViX7LxagzPhz4eCc0-9" vertex="1" connectable="0">
          <mxGeometry x="-0.7754" relative="1" as="geometry">
            <mxPoint as="offset" />
          </mxGeometry>
        </mxCell>
        <mxCell id="kZiViX7LxagzPhz4eCc0-12" value="1" style="edgeLabel;html=1;align=center;verticalAlign=middle;resizable=0;points=[];" parent="kZiViX7LxagzPhz4eCc0-9" vertex="1" connectable="0">
          <mxGeometry x="0.8144" y="1" relative="1" as="geometry">
            <mxPoint as="offset" />
          </mxGeometry>
        </mxCell>
        <mxCell id="kZiViX7LxagzPhz4eCc0-14" value="Has" style="shape=rhombus;perimeter=rhombusPerimeter;whiteSpace=wrap;html=1;align=center;" parent="1" vertex="1">
          <mxGeometry x="410" y="540" width="95" height="50" as="geometry" />
        </mxCell>
        <mxCell id="kZiViX7LxagzPhz4eCc0-15" value="AssignedTo" style="shape=rhombus;perimeter=rhombusPerimeter;whiteSpace=wrap;html=1;align=center;" parent="1" vertex="1">
          <mxGeometry x="350" y="360" width="120" height="60" as="geometry" />
        </mxCell>
        <mxCell id="kZiViX7LxagzPhz4eCc0-17" value="" style="endArrow=none;html=1;rounded=0;entryX=0;entryY=0.5;entryDx=0;entryDy=0;exitX=1;exitY=0.5;exitDx=0;exitDy=0;" parent="1" source="kZiViX7LxagzPhz4eCc0-15" target="kZiViX7LxagzPhz4eCc0-2" edge="1">
          <mxGeometry relative="1" as="geometry">
            <mxPoint x="420" y="430" as="sourcePoint" />
            <mxPoint x="580" y="430" as="targetPoint" />
          </mxGeometry>
        </mxCell>
        <mxCell id="kZiViX7LxagzPhz4eCc0-18" value="1" style="edgeLabel;html=1;align=center;verticalAlign=middle;resizable=0;points=[];" parent="kZiViX7LxagzPhz4eCc0-17" vertex="1" connectable="0">
          <mxGeometry x="0.6779" y="-1" relative="1" as="geometry">
            <mxPoint as="offset" />
          </mxGeometry>
        </mxCell>
        <mxCell id="kZiViX7LxagzPhz4eCc0-19" value="1" style="edgeLabel;html=1;align=center;verticalAlign=middle;resizable=0;points=[];" parent="kZiViX7LxagzPhz4eCc0-17" vertex="1" connectable="0">
          <mxGeometry x="-0.7849" relative="1" as="geometry">
            <mxPoint as="offset" />
          </mxGeometry>
        </mxCell>
        <mxCell id="kZiViX7LxagzPhz4eCc0-21" value="" style="endArrow=none;html=1;rounded=0;entryX=0;entryY=0.5;entryDx=0;entryDy=0;exitX=1.01;exitY=0.632;exitDx=0;exitDy=0;exitPerimeter=0;" parent="1" source="kZiViX7LxagzPhz4eCc0-3" target="kZiViX7LxagzPhz4eCc0-15" edge="1">
          <mxGeometry relative="1" as="geometry">
            <mxPoint x="230" y="429.31" as="sourcePoint" />
            <mxPoint x="390" y="429.31" as="targetPoint" />
          </mxGeometry>
        </mxCell>
        <mxCell id="kZiViX7LxagzPhz4eCc0-22" value="1" style="edgeLabel;html=1;align=center;verticalAlign=middle;resizable=0;points=[];" parent="kZiViX7LxagzPhz4eCc0-21" vertex="1" connectable="0">
          <mxGeometry x="-0.7878" y="1" relative="1" as="geometry">
            <mxPoint as="offset" />
          </mxGeometry>
        </mxCell>
        <mxCell id="kZiViX7LxagzPhz4eCc0-23" value="M" style="edgeLabel;html=1;align=center;verticalAlign=middle;resizable=0;points=[];" parent="kZiViX7LxagzPhz4eCc0-21" vertex="1" connectable="0">
          <mxGeometry x="0.7878" y="-3" relative="1" as="geometry">
            <mxPoint as="offset" />
          </mxGeometry>
        </mxCell>
        <mxCell id="kZiViX7LxagzPhz4eCc0-24" value="name" style="ellipse;whiteSpace=wrap;html=1;align=center;" parent="1" vertex="1">
          <mxGeometry x="10" y="450" width="70" height="20" as="geometry" />
        </mxCell>
        <mxCell id="kZiViX7LxagzPhz4eCc0-25" value="center_id" style="ellipse;whiteSpace=wrap;html=1;align=center;fontStyle=4;" parent="1" vertex="1">
          <mxGeometry x="125" y="375" width="70" height="30" as="geometry" />
        </mxCell>
        <mxCell id="kZiViX7LxagzPhz4eCc0-27" value="" style="endArrow=none;html=1;rounded=0;entryX=1;entryY=0.5;entryDx=0;entryDy=0;exitX=0;exitY=0.5;exitDx=0;exitDy=0;" parent="1" source="kZiViX7LxagzPhz4eCc0-3" target="kZiViX7LxagzPhz4eCc0-24" edge="1">
          <mxGeometry relative="1" as="geometry">
            <mxPoint x="110" y="500" as="sourcePoint" />
            <mxPoint x="270" y="500" as="targetPoint" />
          </mxGeometry>
        </mxCell>
        <mxCell id="kZiViX7LxagzPhz4eCc0-28" value="" style="endArrow=none;html=1;rounded=0;exitX=0.5;exitY=1;exitDx=0;exitDy=0;entryX=0.5;entryY=0;entryDx=0;entryDy=0;" parent="1" source="kZiViX7LxagzPhz4eCc0-25" target="kZiViX7LxagzPhz4eCc0-3" edge="1">
          <mxGeometry relative="1" as="geometry">
            <mxPoint x="70" y="500" as="sourcePoint" />
            <mxPoint x="230" y="500" as="targetPoint" />
          </mxGeometry>
        </mxCell>
        <mxCell id="kZiViX7LxagzPhz4eCc0-31" value="Candidates" style="ellipse;shape=doubleEllipse;margin=3;whiteSpace=wrap;html=1;align=center;" parent="1" vertex="1">
          <mxGeometry x="110" y="535" width="80" height="30" as="geometry" />
        </mxCell>
        <mxCell id="kZiViX7LxagzPhz4eCc0-32" value="" style="endArrow=none;html=1;rounded=0;exitX=0.5;exitY=1;exitDx=0;exitDy=0;entryX=0.5;entryY=0;entryDx=0;entryDy=0;" parent="1" source="kZiViX7LxagzPhz4eCc0-3" target="kZiViX7LxagzPhz4eCc0-31" edge="1">
          <mxGeometry relative="1" as="geometry">
            <mxPoint x="280" y="490" as="sourcePoint" />
            <mxPoint x="440" y="490" as="targetPoint" />
          </mxGeometry>
        </mxCell>
        <mxCell id="kZiViX7LxagzPhz4eCc0-33" value="name" style="ellipse;whiteSpace=wrap;html=1;align=center;" parent="1" vertex="1">
          <mxGeometry x="570" y="350" width="80" height="30" as="geometry" />
        </mxCell>
        <mxCell id="kZiViX7LxagzPhz4eCc0-34" value="" style="endArrow=none;html=1;rounded=0;exitX=0.5;exitY=1;exitDx=0;exitDy=0;entryX=0.5;entryY=0;entryDx=0;entryDy=0;" parent="1" source="kZiViX7LxagzPhz4eCc0-33" target="kZiViX7LxagzPhz4eCc0-2" edge="1">
          <mxGeometry relative="1" as="geometry">
            <mxPoint x="670" y="410" as="sourcePoint" />
            <mxPoint x="830" y="410" as="targetPoint" />
          </mxGeometry>
        </mxCell>
        <mxCell id="kZiViX7LxagzPhz4eCc0-35" value="room" style="ellipse;whiteSpace=wrap;html=1;align=center;" parent="1" vertex="1">
          <mxGeometry x="680" y="350" width="80" height="30" as="geometry" />
        </mxCell>
        <mxCell id="kZiViX7LxagzPhz4eCc0-36" value="" style="endArrow=none;html=1;rounded=0;exitX=0.5;exitY=1;exitDx=0;exitDy=0;entryX=1;entryY=0;entryDx=0;entryDy=0;" parent="1" source="kZiViX7LxagzPhz4eCc0-35" target="kZiViX7LxagzPhz4eCc0-2" edge="1">
          <mxGeometry relative="1" as="geometry">
            <mxPoint x="619.9999999999998" y="390" as="sourcePoint" />
            <mxPoint x="619.9999999999998" y="430" as="targetPoint" />
          </mxGeometry>
        </mxCell>
        <mxCell id="kZiViX7LxagzPhz4eCc0-37" value="email" style="ellipse;whiteSpace=wrap;html=1;align=center;" parent="1" vertex="1">
          <mxGeometry x="730" y="425" width="80" height="30" as="geometry" />
        </mxCell>
        <mxCell id="kZiViX7LxagzPhz4eCc0-38" value="" style="endArrow=none;html=1;rounded=0;exitX=0;exitY=0.5;exitDx=0;exitDy=0;entryX=1;entryY=0.5;entryDx=0;entryDy=0;" parent="1" source="kZiViX7LxagzPhz4eCc0-37" target="kZiViX7LxagzPhz4eCc0-2" edge="1">
          <mxGeometry relative="1" as="geometry">
            <mxPoint x="729.9999999999998" y="390" as="sourcePoint" />
            <mxPoint x="669.9999999999998" y="430" as="targetPoint" />
          </mxGeometry>
        </mxCell>
        <mxCell id="kZiViX7LxagzPhz4eCc0-40" value="admin_id" style="ellipse;whiteSpace=wrap;html=1;align=center;fontStyle=4;" parent="1" vertex="1">
          <mxGeometry x="630" y="525" width="80" height="35" as="geometry" />
        </mxCell>
        <mxCell id="kZiViX7LxagzPhz4eCc0-41" value="" style="endArrow=none;html=1;rounded=0;exitX=0.75;exitY=1;exitDx=0;exitDy=0;entryX=0.5;entryY=0;entryDx=0;entryDy=0;" parent="1" source="kZiViX7LxagzPhz4eCc0-2" target="kZiViX7LxagzPhz4eCc0-40" edge="1">
          <mxGeometry relative="1" as="geometry">
            <mxPoint x="730" y="470" as="sourcePoint" />
            <mxPoint x="890" y="470" as="targetPoint" />
          </mxGeometry>
        </mxCell>
        <mxCell id="kZiViX7LxagzPhz4eCc0-42" value="name" style="ellipse;whiteSpace=wrap;html=1;align=center;" parent="1" vertex="1">
          <mxGeometry x="180" y="710" width="70" height="20" as="geometry" />
        </mxCell>
        <mxCell id="kZiViX7LxagzPhz4eCc0-43" value="" style="endArrow=none;html=1;rounded=0;entryX=0;entryY=0.5;entryDx=0;entryDy=0;exitX=1;exitY=0.5;exitDx=0;exitDy=0;" parent="1" source="kZiViX7LxagzPhz4eCc0-42" target="kZiViX7LxagzPhz4eCc0-1" edge="1">
          <mxGeometry relative="1" as="geometry">
            <mxPoint x="80" y="650" as="sourcePoint" />
            <mxPoint x="240" y="650" as="targetPoint" />
          </mxGeometry>
        </mxCell>
        <mxCell id="kZiViX7LxagzPhz4eCc0-44" value="voter_id" style="ellipse;whiteSpace=wrap;html=1;align=center;fontStyle=4;" parent="1" vertex="1">
          <mxGeometry x="180" y="660" width="80" height="30" as="geometry" />
        </mxCell>
        <mxCell id="kZiViX7LxagzPhz4eCc0-45" value="" style="endArrow=none;html=1;rounded=0;exitX=1;exitY=0.5;exitDx=0;exitDy=0;" parent="1" source="kZiViX7LxagzPhz4eCc0-44" target="kZiViX7LxagzPhz4eCc0-1" edge="1">
          <mxGeometry relative="1" as="geometry">
            <mxPoint x="290" y="790" as="sourcePoint" />
            <mxPoint x="450" y="790" as="targetPoint" />
          </mxGeometry>
        </mxCell>
        <mxCell id="kZiViX7LxagzPhz4eCc0-46" value="NID" style="ellipse;whiteSpace=wrap;html=1;align=center;" parent="1" vertex="1">
          <mxGeometry x="260" y="750" width="70" height="20" as="geometry" />
        </mxCell>
        <mxCell id="kZiViX7LxagzPhz4eCc0-48" value="" style="endArrow=none;html=1;rounded=0;exitX=0.5;exitY=0;exitDx=0;exitDy=0;entryX=0.25;entryY=1;entryDx=0;entryDy=0;" parent="1" source="kZiViX7LxagzPhz4eCc0-46" target="kZiViX7LxagzPhz4eCc0-1" edge="1">
          <mxGeometry relative="1" as="geometry">
            <mxPoint x="290" y="790" as="sourcePoint" />
            <mxPoint x="450" y="790" as="targetPoint" />
          </mxGeometry>
        </mxCell>
        <mxCell id="kZiViX7LxagzPhz4eCc0-49" value="Image" style="ellipse;whiteSpace=wrap;html=1;align=center;" parent="1" vertex="1">
          <mxGeometry x="355" y="760" width="70" height="20" as="geometry" />
        </mxCell>
        <mxCell id="kZiViX7LxagzPhz4eCc0-50" value="" style="endArrow=none;html=1;rounded=0;exitX=0.5;exitY=1;exitDx=0;exitDy=0;entryX=0.5;entryY=0;entryDx=0;entryDy=0;" parent="1" source="kZiViX7LxagzPhz4eCc0-1" target="kZiViX7LxagzPhz4eCc0-49" edge="1">
          <mxGeometry relative="1" as="geometry">
            <mxPoint x="290" y="770" as="sourcePoint" />
            <mxPoint x="450" y="770" as="targetPoint" />
          </mxGeometry>
        </mxCell>
        <mxCell id="kZiViX7LxagzPhz4eCc0-51" value="DOB" style="ellipse;whiteSpace=wrap;html=1;align=center;" parent="1" vertex="1">
          <mxGeometry x="450" y="750" width="70" height="20" as="geometry" />
        </mxCell>
        <mxCell id="kZiViX7LxagzPhz4eCc0-52" value="" style="endArrow=none;html=1;rounded=0;entryX=0.75;entryY=1;entryDx=0;entryDy=0;exitX=0.5;exitY=0;exitDx=0;exitDy=0;" parent="1" source="kZiViX7LxagzPhz4eCc0-51" target="kZiViX7LxagzPhz4eCc0-1" edge="1">
          <mxGeometry relative="1" as="geometry">
            <mxPoint x="290" y="770" as="sourcePoint" />
            <mxPoint x="450" y="770" as="targetPoint" />
          </mxGeometry>
        </mxCell>
        <mxCell id="kZiViX7LxagzPhz4eCc0-54" value="" style="endArrow=none;html=1;rounded=0;exitX=0;exitY=0.5;exitDx=0;exitDy=0;entryX=1;entryY=0.5;entryDx=0;entryDy=0;" parent="1" source="kZiViX7LxagzPhz4eCc0-55" target="kZiViX7LxagzPhz4eCc0-1" edge="1">
          <mxGeometry relative="1" as="geometry">
            <mxPoint x="499.9999999999998" y="700" as="sourcePoint" />
            <mxPoint x="450" y="700" as="targetPoint" />
          </mxGeometry>
        </mxCell>
        <mxCell id="kZiViX7LxagzPhz4eCc0-55" value="Address" style="ellipse;shape=doubleEllipse;margin=3;whiteSpace=wrap;html=1;align=center;" parent="1" vertex="1">
          <mxGeometry x="505" y="680" width="100" height="40" as="geometry" />
        </mxCell>
      </root>
    </mxGraphModel>
  </diagram>
</mxfile>
